<svg width="1000" height="720" viewBox="0 0 1000 720" fill="none" xmlns="http://www.w3.org/2000/svg">
<rect width="1000" height="720" fill="#646464"/>
<path d="M233.476 414.12C230.276 414.12 227.026 414.02 223.726 413.82C220.426 413.72 217.176 413.47 213.976 413.07C206.876 412.47 203.326 410.17 203.326 406.17C203.326 404.17 204.126 401.77 205.726 398.97C209.526 392.07 213.426 385.22 217.426 378.42C221.426 371.52 225.376 364.62 229.276 357.72C230.476 355.52 232.026 352.77 233.926 349.47C235.826 346.17 237.726 343.02 239.626 340.02C240.526 338.62 241.826 337.22 243.526 335.82C245.226 334.32 246.976 333.37 248.776 332.97C246.676 333.07 243.976 333.22 240.676 333.42C237.476 333.62 234.176 334.02 230.776 334.62C227.476 335.12 224.476 335.97 221.776 337.17C219.176 338.27 217.326 339.82 216.226 341.82C215.826 342.72 215.476 343.62 215.176 344.52C214.876 345.42 214.726 346.32 214.726 347.22C214.726 349.52 215.526 351.17 217.126 352.17C217.226 352.17 217.276 352.27 217.276 352.47C217.276 352.67 217.076 352.87 216.676 353.07C216.376 353.27 216.076 353.32 215.776 353.22C214.876 352.72 213.776 351.52 212.476 349.62C211.176 347.62 210.376 345.97 210.076 344.67C209.776 343.47 209.626 342.37 209.626 341.37C209.626 338.77 210.476 336.77 212.176 335.37C213.876 333.87 216.026 332.82 218.626 332.22C221.226 331.52 223.876 331.12 226.576 331.02C229.276 330.82 231.676 330.72 233.776 330.72C239.076 330.72 244.376 330.67 249.676 330.57C254.976 330.37 260.226 330.27 265.426 330.27C267.726 330.27 269.976 330.27 272.176 330.27C274.476 330.27 276.726 330.37 278.926 330.57C281.426 330.67 283.126 331.17 284.026 332.07C285.026 332.97 285.526 334.07 285.526 335.37C285.526 336.97 284.976 338.82 283.876 340.92C282.876 342.92 281.926 344.77 281.026 346.47C280.626 347.27 279.976 347.87 279.076 348.27C278.176 348.57 277.826 348.27 278.026 347.37C278.526 345.37 278.776 343.37 278.776 341.37C278.776 339.57 278.426 337.97 277.726 336.57C277.126 335.07 275.926 334.02 274.126 333.42C272.426 332.92 269.776 332.67 266.176 332.67C264.876 332.67 263.526 332.72 262.126 332.82C260.826 332.82 259.476 332.87 258.076 332.97C254.076 333.27 251.376 334.32 249.976 336.12C246.676 340.72 243.476 345.72 240.376 351.12C237.376 356.42 234.476 361.47 231.676 366.27C231.576 366.47 231.526 366.72 231.526 367.02C231.526 367.62 231.976 367.92 232.876 367.92C236.376 367.92 240.126 367.97 244.126 368.07C248.226 368.17 251.826 368.17 254.926 368.07C255.626 367.97 256.676 367.87 258.076 367.77C259.576 367.67 261.076 367.47 262.576 367.17C264.176 366.87 265.376 366.52 266.176 366.12C266.676 365.82 266.976 365.67 267.076 365.67C267.676 365.67 267.676 366.27 267.076 367.47C266.576 368.57 265.676 369.72 264.376 370.92C263.176 372.02 261.776 372.57 260.176 372.57C255.276 372.57 251.126 372.47 247.726 372.27C244.426 372.07 240.726 371.97 236.626 371.97C235.626 371.97 234.576 371.97 233.476 371.97C232.376 371.97 231.176 372.02 229.876 372.12C228.876 372.22 228.176 372.62 227.776 373.32C226.776 375.12 225.876 376.77 225.076 378.27C224.376 379.77 223.476 381.52 222.376 383.52C221.576 385.02 220.576 386.97 219.376 389.37C218.276 391.67 217.276 394.07 216.376 396.57C215.476 398.97 215.026 401.07 215.026 402.87C215.026 405.97 216.476 408.12 219.376 409.32C222.276 410.42 225.826 411.02 230.026 411.12C235.826 411.12 241.526 410.57 247.126 409.47C252.826 408.27 258.126 406.32 263.026 403.62C268.026 400.82 272.376 397.07 276.076 392.37C276.276 392.17 276.426 392.07 276.526 392.07C276.826 392.07 277.026 392.37 277.126 392.97C277.226 393.47 277.176 393.87 276.976 394.17C273.876 397.97 270.876 401.67 267.976 405.27C265.076 408.77 262.176 410.97 259.276 411.87C257.176 412.47 253.776 412.97 249.076 413.37C244.376 413.87 239.176 414.12 233.476 414.12ZM276.007 414.57C275.607 414.57 275.607 414.12 276.007 413.22C276.507 412.32 276.957 411.32 277.357 410.22C277.857 409.12 278.357 407.92 278.857 406.62C279.857 404.22 280.957 401.52 282.157 398.52C283.357 395.52 284.507 392.62 285.607 389.82C286.707 386.92 287.657 384.47 288.457 382.47C289.357 380.37 289.957 379.02 290.257 378.42C288.857 379.92 287.157 381.82 285.157 384.12C283.257 386.32 281.457 388.47 279.757 390.57C278.057 392.67 276.757 394.32 275.857 395.52C275.557 395.92 275.307 396.12 275.107 396.12C274.907 396.12 274.807 395.87 274.807 395.37C274.807 394.57 275.057 393.82 275.557 393.12C277.457 390.72 279.557 388.02 281.857 385.02C284.257 382.02 286.407 379.27 288.307 376.77C290.207 374.17 291.407 372.47 291.907 371.67C293.007 371.47 294.607 371.17 296.707 370.77C298.907 370.37 300.407 369.82 301.207 369.12C301.507 368.82 301.807 368.67 302.107 368.67C302.307 368.67 302.407 368.87 302.407 369.27C302.507 369.57 302.407 369.92 302.107 370.32C301.507 371.02 300.457 372.67 298.957 375.27C297.557 377.77 296.007 380.57 294.307 383.67C292.707 386.77 291.207 389.57 289.807 392.07C291.407 390.17 292.957 388.37 294.457 386.67C296.057 384.97 297.157 383.77 297.757 383.07C298.957 381.87 300.607 380.37 302.707 378.57C304.807 376.77 307.007 375.12 309.307 373.62C311.607 372.12 313.607 371.27 315.307 371.07C315.707 370.97 316.057 370.92 316.357 370.92C316.657 370.92 316.957 370.92 317.257 370.92C319.157 370.92 320.107 371.62 320.107 373.02C320.107 373.62 319.957 374.32 319.657 375.12C319.357 375.92 318.957 376.72 318.457 377.52C317.857 378.72 316.857 380.62 315.457 383.22C314.057 385.72 312.807 388.02 311.707 390.12L318.757 383.07C319.957 381.87 321.607 380.37 323.707 378.57C325.807 376.77 328.007 375.12 330.307 373.62C332.607 372.12 334.607 371.27 336.307 371.07C336.707 370.97 337.057 370.92 337.357 370.92C337.757 370.92 338.057 370.92 338.257 370.92C340.457 370.92 341.557 371.72 341.557 373.32C341.557 374.52 340.907 376.12 339.607 378.12C338.907 379.22 337.807 381.07 336.307 383.67C334.807 386.27 333.257 389.12 331.657 392.22C330.157 395.22 328.857 398.02 327.757 400.62C326.657 403.22 326.107 405.12 326.107 406.32C326.107 407.72 326.807 408.42 328.207 408.42C329.507 408.42 331.157 407.67 333.157 406.17C335.257 404.57 337.357 402.67 339.457 400.47C341.657 398.27 343.557 396.17 345.157 394.17C345.857 393.37 346.507 392.57 347.107 391.77C347.807 390.87 348.207 390.37 348.307 390.27C348.507 390.47 348.607 390.82 348.607 391.32C348.607 392.02 348.357 392.72 347.857 393.42C347.457 394.02 347.057 394.57 346.657 395.07C344.757 397.57 342.557 400.17 340.057 402.87C337.657 405.57 335.007 407.87 332.107 409.77C329.207 411.57 326.107 412.62 322.807 412.92C321.807 413.02 320.807 412.82 319.807 412.32C318.807 411.82 318.307 411.02 318.307 409.92C318.307 408.52 318.657 406.87 319.357 404.97C320.157 403.07 321.007 401.17 321.907 399.27C322.907 397.37 323.657 395.82 324.157 394.62C325.957 391.12 327.607 387.82 329.107 384.72C330.607 381.62 331.657 379.42 332.257 378.12C332.557 377.52 332.707 377.02 332.707 376.62C332.707 375.92 332.157 375.87 331.057 376.47C329.957 377.07 328.607 377.97 327.007 379.17C325.507 380.37 324.107 381.57 322.807 382.77C321.507 383.87 320.657 384.62 320.257 385.02C318.557 386.72 316.507 389.02 314.107 391.92C311.807 394.82 309.657 397.87 307.657 401.07C305.657 404.17 304.257 407.07 303.457 409.77C302.457 410.67 301.507 411.12 300.607 411.12C299.907 411.12 299.307 410.87 298.807 410.37C298.407 409.87 298.207 409.27 298.207 408.57C298.207 406.57 298.807 404.22 300.007 401.52C301.307 398.72 302.357 396.42 303.157 394.62C304.957 391.12 306.607 387.82 308.107 384.72C309.607 381.62 310.657 379.42 311.257 378.12C311.557 377.52 311.707 377.02 311.707 376.62C311.707 375.92 311.157 375.87 310.057 376.47C308.957 377.07 307.607 377.97 306.007 379.17C304.507 380.37 303.107 381.57 301.807 382.77C300.507 383.87 299.657 384.62 299.257 385.02C296.857 387.52 294.607 390.07 292.507 392.67C290.507 395.27 288.807 398.07 287.407 401.07C286.607 402.87 285.757 404.87 284.857 407.07C283.957 409.27 283.207 411.12 282.607 412.62C281.307 412.72 280.007 413.07 278.707 413.67C277.407 414.27 276.507 414.57 276.007 414.57ZM376.766 355.02C375.366 355.02 374.366 354.57 373.766 353.67C373.366 353.17 373.166 352.52 373.166 351.72C373.166 350.12 373.916 348.82 375.416 347.82C376.516 347.22 377.516 346.92 378.416 346.92C379.916 346.92 380.966 347.37 381.566 348.27C381.966 348.77 382.166 349.42 382.166 350.22C382.166 351.82 381.366 353.12 379.766 354.12C378.866 354.72 377.866 355.02 376.766 355.02ZM350.666 412.77C349.666 412.77 348.816 412.57 348.116 412.17C347.516 411.77 347.216 411.02 347.216 409.92C347.216 408.52 347.566 406.87 348.266 404.97C349.066 403.07 349.916 401.17 350.816 399.27C351.816 397.37 352.566 395.82 353.066 394.62C353.766 393.22 354.616 391.42 355.616 389.22C356.716 386.92 357.716 384.77 358.616 382.77C359.616 380.67 360.316 379.22 360.716 378.42C359.316 379.92 357.616 381.82 355.616 384.12C353.716 386.32 351.916 388.47 350.216 390.57C348.516 392.67 347.216 394.32 346.316 395.52C346.016 395.92 345.766 396.12 345.566 396.12C345.366 396.12 345.266 395.87 345.266 395.37C345.266 394.57 345.516 393.82 346.016 393.12C347.916 390.72 350.016 388.02 352.316 385.02C354.716 382.02 356.866 379.27 358.766 376.77C360.666 374.17 361.866 372.47 362.366 371.67C363.466 371.47 365.066 371.17 367.166 370.77C369.366 370.37 370.866 369.82 371.666 369.12C371.966 368.82 372.266 368.67 372.566 368.67C372.766 368.67 372.866 368.87 372.866 369.27C372.966 369.57 372.866 369.92 372.566 370.32C371.966 371.02 370.916 372.72 369.416 375.42C367.916 378.12 366.316 381.12 364.616 384.42C363.016 387.62 361.516 390.52 360.116 393.12C358.716 395.82 357.516 398.42 356.516 400.92C355.516 403.42 355.016 405.22 355.016 406.32C355.016 407.72 355.716 408.42 357.116 408.42C358.416 408.42 360.066 407.62 362.066 406.02C364.166 404.42 366.266 402.52 368.366 400.32C370.466 398.02 372.316 395.92 373.916 394.02C374.416 393.42 375.016 392.72 375.716 391.92C376.516 391.02 377.016 390.47 377.216 390.27C377.416 390.47 377.516 390.82 377.516 391.32C377.416 392.02 377.166 392.72 376.766 393.42C376.366 394.02 375.966 394.57 375.566 395.07C373.466 397.67 371.166 400.37 368.666 403.17C366.166 405.87 363.416 408.17 360.416 410.07C357.416 411.87 354.166 412.77 350.666 412.77ZM375.323 414.42C374.923 414.42 374.923 414.02 375.323 413.22C375.823 412.32 376.273 411.32 376.673 410.22C377.173 409.12 377.673 407.92 378.173 406.62C379.173 404.22 380.273 401.52 381.473 398.52C382.673 395.52 383.823 392.62 384.923 389.82C386.023 386.92 386.973 384.47 387.773 382.47C388.673 380.37 389.273 379.02 389.573 378.42C388.173 379.92 386.473 381.82 384.473 384.12C382.573 386.32 380.773 388.47 379.073 390.57C377.373 392.67 376.073 394.32 375.173 395.52C374.873 395.92 374.623 396.12 374.423 396.12C374.223 396.12 374.123 395.87 374.123 395.37C374.123 394.57 374.373 393.82 374.873 393.12C376.773 390.72 378.873 388.02 381.173 385.02C383.573 382.02 385.723 379.27 387.623 376.77C389.523 374.17 390.723 372.47 391.223 371.67C392.323 371.47 393.923 371.17 396.023 370.77C398.223 370.37 399.723 369.82 400.523 369.12C400.823 368.82 401.123 368.67 401.423 368.67C401.623 368.67 401.723 368.87 401.723 369.27C401.823 369.57 401.723 369.92 401.423 370.32C400.823 370.92 399.923 372.22 398.723 374.22C397.623 376.22 396.373 378.52 394.973 381.12C393.573 383.72 392.223 386.22 390.923 388.62C391.923 387.12 393.223 385.37 394.823 383.37C396.523 381.27 398.373 379.27 400.373 377.37C402.373 375.37 404.373 373.72 406.373 372.42C408.473 371.12 410.423 370.47 412.223 370.47C413.523 370.47 414.623 370.77 415.523 371.37C416.423 371.87 417.123 372.82 417.623 374.22C417.923 374.92 418.073 375.72 418.073 376.62C418.073 378.32 417.623 379.97 416.723 381.57C415.923 383.07 415.323 384.22 414.923 385.02C414.823 385.32 414.473 385.62 413.873 385.92C413.273 386.12 413.023 386.02 413.123 385.62C413.223 385.12 413.273 384.62 413.273 384.12C413.373 383.62 413.423 383.07 413.423 382.47C413.423 380.77 413.073 379.22 412.373 377.82C411.773 376.42 410.623 375.72 408.923 375.72C407.323 375.72 405.373 376.72 403.073 378.72C400.773 380.72 398.473 383.02 396.173 385.62C393.273 389.02 390.973 392.27 389.273 395.37C387.573 398.37 386.173 401.32 385.073 404.22C384.473 405.82 383.873 407.42 383.273 409.02C382.673 410.52 382.223 411.72 381.923 412.62C380.623 412.72 379.323 413.02 378.023 413.52C376.723 414.12 375.823 414.42 375.323 414.42ZM421.592 413.52C417.892 413.52 415.292 412.82 413.792 411.42C412.292 410.02 411.542 408.22 411.542 406.02C411.542 403.12 412.492 399.92 414.392 396.42C416.292 392.82 418.092 389.82 419.792 387.42C421.492 385.12 423.392 382.97 425.492 380.97C427.692 378.87 430.042 377.07 432.542 375.57C434.142 374.57 436.292 373.52 438.992 372.42C441.792 371.22 444.142 370.62 446.042 370.62C448.342 370.62 449.942 371.17 450.842 372.27C451.742 373.27 452.192 374.52 452.192 376.02C452.192 377.22 451.992 378.47 451.592 379.77C451.192 380.97 450.742 382.12 450.242 383.22C449.942 383.82 449.492 384.27 448.892 384.57C448.292 384.77 447.992 384.67 447.992 384.27C447.992 383.77 448.042 383.32 448.142 382.92C448.242 382.52 448.292 382.07 448.292 381.57C448.292 379.67 447.842 377.82 446.942 376.02C446.142 374.12 444.892 373.17 443.192 373.17C441.392 373.17 439.442 373.82 437.342 375.12C435.242 376.32 433.792 377.37 432.992 378.27C430.392 380.97 427.842 384.32 425.342 388.32C422.942 392.32 421.192 396.12 420.092 399.72C419.392 401.82 419.042 403.62 419.042 405.12C419.042 406.82 419.492 408.02 420.392 408.72C421.292 409.42 422.392 409.77 423.692 409.77C424.692 409.77 425.742 409.62 426.842 409.32C428.042 409.02 429.292 408.67 430.592 408.27C433.592 407.27 436.592 405.72 439.592 403.62C442.692 401.42 445.492 399.12 447.992 396.72C450.492 394.22 452.392 392.07 453.692 390.27C453.892 390.47 453.992 390.77 453.992 391.17C453.992 391.67 453.792 392.27 453.392 392.97C452.992 393.57 452.692 394.07 452.492 394.47C450.392 397.27 447.642 400.17 444.242 403.17C440.842 406.07 437.142 408.52 433.142 410.52C429.242 412.52 425.392 413.52 421.592 413.52ZM471.435 412.77C470.435 412.77 469.585 412.57 468.885 412.17C468.185 411.77 467.835 411.02 467.835 409.92C467.835 408.52 468.185 406.92 468.885 405.12C469.585 403.32 470.385 401.57 471.285 399.87C472.185 398.07 472.985 396.62 473.685 395.52C470.185 399.22 466.535 402.72 462.735 406.02C460.835 407.62 458.735 409.12 456.435 410.52C454.135 411.92 451.685 412.62 449.085 412.62C448.085 412.62 447.385 412.32 446.985 411.72C446.585 411.02 446.385 410.22 446.385 409.32C446.385 408.82 446.435 408.47 446.535 408.27C447.035 404.37 448.285 400.32 450.285 396.12C452.285 391.92 454.735 387.97 457.635 384.27C460.535 380.57 463.485 377.57 466.485 375.27C469.885 372.67 473.635 371.37 477.735 371.37H494.985C495.485 371.37 495.735 371.57 495.735 371.97C495.735 372.77 495.285 373.17 494.385 373.17C493.385 373.17 492.385 373.82 491.385 375.12C490.385 376.32 489.635 377.32 489.135 378.12C488.435 379.22 487.335 381.07 485.835 383.67C484.335 386.27 482.785 389.12 481.185 392.22C479.685 395.22 478.385 398.02 477.285 400.62C476.185 403.22 475.635 405.12 475.635 406.32C475.635 407.72 476.335 408.42 477.735 408.42C479.235 408.42 480.935 407.72 482.835 406.32C484.735 404.92 486.635 403.22 488.535 401.22C490.535 399.12 492.335 397.07 493.935 395.07C495.635 392.97 496.985 391.32 497.985 390.12C498.585 390.72 498.535 391.57 497.835 392.67C497.235 393.67 496.685 394.47 496.185 395.07C494.185 397.67 491.885 400.37 489.285 403.17C486.685 405.87 483.835 408.17 480.735 410.07C477.735 411.87 474.635 412.77 471.435 412.77ZM455.235 407.52C456.435 407.52 458.085 406.67 460.185 404.97C462.385 403.17 464.735 400.97 467.235 398.37C469.735 395.67 472.085 392.87 474.285 389.97C476.485 386.97 478.285 384.27 479.685 381.87C481.185 379.37 481.935 377.47 481.935 376.17C481.935 375.07 481.585 374.32 480.885 373.92C480.285 373.52 479.485 373.32 478.485 373.32C476.885 373.32 475.135 373.92 473.235 375.12C471.435 376.22 469.985 377.32 468.885 378.42C467.685 379.52 466.235 381.27 464.535 383.67C462.935 385.97 461.335 388.52 459.735 391.32C458.135 394.12 456.785 396.82 455.685 399.42C454.585 402.02 454.035 404.12 454.035 405.72C454.035 406.92 454.435 407.52 455.235 407.52ZM496.026 414.57C495.626 414.57 495.626 414.12 496.026 413.22C496.526 412.32 496.976 411.32 497.376 410.22C497.876 409.12 498.376 407.92 498.876 406.62C499.876 404.22 500.976 401.52 502.176 398.52C503.376 395.52 504.526 392.62 505.626 389.82C506.726 386.92 507.676 384.47 508.476 382.47C509.376 380.37 509.976 379.02 510.276 378.42C508.876 379.92 507.176 381.82 505.176 384.12C503.276 386.32 501.476 388.47 499.776 390.57C498.076 392.67 496.776 394.32 495.876 395.52C495.576 395.92 495.326 396.12 495.126 396.12C494.926 396.12 494.826 395.87 494.826 395.37C494.826 394.57 495.076 393.82 495.576 393.12C497.476 390.72 499.576 388.02 501.876 385.02C504.276 382.02 506.426 379.27 508.326 376.77C510.226 374.17 511.426 372.47 511.926 371.67C513.026 371.47 514.626 371.17 516.726 370.77C518.926 370.37 520.426 369.82 521.226 369.12C521.526 368.82 521.826 368.67 522.126 368.67C522.326 368.67 522.426 368.87 522.426 369.27C522.526 369.57 522.426 369.92 522.126 370.32C521.526 371.02 520.476 372.67 518.976 375.27C517.576 377.77 516.026 380.57 514.326 383.67C512.726 386.77 511.226 389.57 509.826 392.07C511.026 390.47 512.326 388.92 513.726 387.42C515.126 385.92 516.476 384.47 517.776 383.07C518.976 381.87 520.626 380.37 522.726 378.57C524.826 376.77 527.026 375.12 529.326 373.62C531.626 372.12 533.626 371.27 535.326 371.07C535.726 370.97 536.076 370.92 536.376 370.92C536.776 370.92 537.076 370.92 537.276 370.92C539.476 370.92 540.576 371.72 540.576 373.32C540.576 374.52 539.926 376.12 538.626 378.12C537.926 379.22 536.826 381.07 535.326 383.67C533.926 386.17 532.476 388.92 530.976 391.92C529.576 394.82 528.326 397.57 527.226 400.17C526.226 402.67 525.726 404.52 525.726 405.72C525.726 407.12 526.426 407.82 527.826 407.82C529.526 407.82 531.376 406.97 533.376 405.27C535.476 403.57 537.726 401.42 540.126 398.82C542.526 396.12 544.926 393.27 547.326 390.27C547.526 390.47 547.626 390.82 547.626 391.32C547.626 392.02 547.376 392.72 546.876 393.42C546.476 394.02 546.076 394.57 545.676 395.07C544.676 396.37 543.326 398.02 541.626 400.02C540.026 401.92 538.376 403.82 536.676 405.72C534.976 407.52 533.426 408.97 532.026 410.07C531.026 410.77 529.726 411.52 528.126 412.32C526.526 413.12 524.926 413.52 523.326 413.52C521.526 413.52 520.276 413.07 519.576 412.17C518.876 411.17 518.526 409.97 518.526 408.57C518.526 406.97 518.826 405.27 519.426 403.47C520.026 401.67 520.676 399.97 521.376 398.37C522.176 396.67 522.776 395.42 523.176 394.62C524.976 391.12 526.626 387.82 528.126 384.72C529.626 381.62 530.676 379.42 531.276 378.12C531.576 377.52 531.726 377.02 531.726 376.62C531.726 375.92 531.176 375.87 530.076 376.47C528.976 377.07 527.626 377.97 526.026 379.17C524.526 380.37 523.126 381.57 521.826 382.77C520.526 383.87 519.676 384.62 519.276 385.02C515.576 388.92 512.326 393.27 509.526 398.07C506.826 402.77 504.526 407.62 502.626 412.62C501.326 412.72 500.026 413.07 498.726 413.67C497.426 414.27 496.526 414.57 496.026 414.57ZM612.122 416.22C608.922 416.22 606.672 415.67 605.372 414.57C604.172 413.47 603.572 412.07 603.572 410.37C603.572 409.27 603.722 408.17 604.022 407.07C604.422 405.87 604.822 404.67 605.222 403.47C606.522 400.27 607.872 397.12 609.272 394.02C610.772 390.92 612.322 387.87 613.922 384.87C615.522 381.77 617.422 378.07 619.622 373.77C621.822 369.47 623.972 364.97 626.072 360.27C628.272 355.47 630.072 350.82 631.472 346.32C632.972 341.82 633.722 337.87 633.722 334.47H620.522C619.022 334.47 616.922 334.57 614.222 334.77C611.622 334.97 608.922 335.42 606.122 336.12C603.422 336.82 601.172 337.97 599.372 339.57C597.572 341.17 596.772 343.32 596.972 346.02C597.072 346.82 597.372 347.92 597.872 349.32C598.372 350.62 598.722 351.42 598.922 351.72L597.272 352.92C596.672 351.82 595.922 350.57 595.022 349.17C594.122 347.67 593.322 346.22 592.622 344.82C591.922 343.42 591.522 342.37 591.422 341.67C591.422 341.47 591.372 341.22 591.272 340.92C591.272 340.62 591.272 340.32 591.272 340.02C591.272 338.92 591.472 337.82 591.872 336.72C592.272 335.52 592.972 334.47 593.972 333.57C595.472 332.27 597.522 331.42 600.122 331.02C602.822 330.62 605.572 330.42 608.372 330.42C611.072 330.42 613.672 330.52 616.172 330.72C618.672 330.92 620.722 331.02 622.322 331.02C622.322 331.02 623.472 331.02 625.772 331.02C628.072 331.02 630.972 331.02 634.472 331.02C638.072 330.92 641.872 330.87 645.872 330.87C649.872 330.87 653.522 330.87 656.822 330.87L654.872 333.12C653.072 333.12 651.172 333.42 649.172 334.02C647.272 334.52 645.622 335.62 644.222 337.32C642.122 340.02 639.772 343.57 637.172 347.97C634.572 352.37 631.922 357.22 629.222 362.52C626.522 367.82 624.022 373.12 621.722 378.42C619.422 383.72 617.472 388.72 615.872 393.42C614.372 398.02 613.422 401.92 613.022 405.12C612.922 406.92 613.322 408.22 614.222 409.02C615.222 409.82 616.522 410.22 618.122 410.22C620.222 410.22 622.272 409.67 624.272 408.57C628.272 406.57 632.272 403.77 636.272 400.17C640.272 396.47 644.072 392.52 647.672 388.32C651.272 384.12 654.322 380.22 656.822 376.62C660.822 370.92 664.672 364.72 668.372 358.02C672.172 351.32 675.422 345.02 678.122 339.12C678.822 337.92 679.422 336.57 679.922 335.07C680.522 333.47 681.322 332.67 682.322 332.67C682.722 332.67 683.222 332.72 683.822 332.82C684.422 332.92 685.072 332.97 685.772 332.97C688.872 332.97 691.722 331.72 694.322 329.22C694.422 329.12 694.672 329.07 695.072 329.07C695.472 329.07 695.772 329.17 695.972 329.37C696.272 329.47 696.322 329.62 696.122 329.82C693.922 331.62 692.072 333.42 690.572 335.22C689.072 337.02 687.422 339.32 685.622 342.12C683.522 345.32 681.122 349.02 678.422 353.22C675.822 357.42 673.172 361.82 670.472 366.42C667.772 371.02 665.322 375.57 663.122 380.07C660.922 384.57 659.222 388.67 658.022 392.37C657.422 394.27 656.922 396.17 656.522 398.07C656.122 399.97 655.922 401.72 655.922 403.32C655.922 405.72 656.422 407.67 657.422 409.17C658.522 410.67 660.322 411.42 662.822 411.42C663.322 411.42 663.772 411.42 664.172 411.42C664.672 411.32 665.172 411.22 665.672 411.12C667.572 410.82 669.722 409.77 672.122 407.97C674.622 406.07 676.972 404.02 679.172 401.82C681.372 399.82 683.222 397.92 684.722 396.12C686.322 394.22 688.022 392.17 689.822 389.97C690.022 390.37 690.122 390.77 690.122 391.17C690.022 391.87 689.772 392.57 689.372 393.27C689.072 393.97 688.672 394.57 688.172 395.07C687.472 395.97 686.422 397.27 685.022 398.97C683.622 400.57 682.072 402.27 680.372 404.07C679.172 405.27 677.372 406.87 674.972 408.87C672.572 410.77 669.972 412.47 667.172 413.97C664.472 415.47 661.922 416.22 659.522 416.22C655.822 416.22 653.272 415.22 651.872 413.22C650.472 411.32 649.772 408.97 649.772 406.17C649.772 402.67 650.472 398.82 651.872 394.62C653.372 390.42 654.772 386.62 656.072 383.22C653.972 385.72 651.772 388.12 649.472 390.42C647.172 392.62 644.872 394.87 642.572 397.17C640.172 399.47 637.722 401.82 635.222 404.22C632.822 406.52 630.322 408.62 627.722 410.52C625.322 412.12 622.822 413.47 620.222 414.57C617.622 415.67 614.922 416.22 612.122 416.22ZM693.321 413.52C689.621 413.52 687.021 412.82 685.521 411.42C684.021 410.02 683.271 408.22 683.271 406.02C683.271 403.12 684.221 399.92 686.121 396.42C688.021 392.82 689.821 389.82 691.521 387.42C693.221 385.12 695.121 382.97 697.221 380.97C699.421 378.87 701.771 377.07 704.271 375.57C705.871 374.57 708.021 373.52 710.721 372.42C713.521 371.22 715.871 370.62 717.771 370.62C720.071 370.62 721.671 371.17 722.571 372.27C723.471 373.27 723.921 374.52 723.921 376.02C723.921 377.22 723.721 378.47 723.321 379.77C722.921 380.97 722.471 382.12 721.971 383.22C721.671 383.82 721.221 384.27 720.621 384.57C720.021 384.77 719.721 384.67 719.721 384.27C719.721 383.77 719.771 383.32 719.871 382.92C719.971 382.52 720.021 382.07 720.021 381.57C720.021 379.67 719.571 377.82 718.671 376.02C717.871 374.12 716.621 373.17 714.921 373.17C713.121 373.17 711.171 373.82 709.071 375.12C706.971 376.32 705.521 377.37 704.721 378.27C702.121 380.97 699.571 384.32 697.071 388.32C694.671 392.32 692.921 396.12 691.821 399.72C691.121 401.82 690.771 403.62 690.771 405.12C690.771 406.82 691.221 408.02 692.121 408.72C693.021 409.42 694.121 409.77 695.421 409.77C696.421 409.77 697.471 409.62 698.571 409.32C699.771 409.02 701.021 408.67 702.321 408.27C705.321 407.27 708.321 405.72 711.321 403.62C714.421 401.42 717.221 399.12 719.721 396.72C722.221 394.22 724.121 392.07 725.421 390.27C725.621 390.47 725.721 390.77 725.721 391.17C725.721 391.67 725.521 392.27 725.121 392.97C724.721 393.57 724.421 394.07 724.221 394.47C722.121 397.27 719.371 400.17 715.971 403.17C712.571 406.07 708.871 408.52 704.871 410.52C700.971 412.52 697.121 413.52 693.321 413.52ZM671.121 439.47C670.421 439.47 670.071 439.22 670.071 438.72C670.071 438.42 670.271 438.17 670.671 437.97C671.071 437.77 671.371 437.67 671.571 437.67C672.071 437.57 673.121 437.52 674.721 437.52C676.321 437.52 678.021 437.37 679.821 437.07C681.621 436.77 683.271 436.12 684.771 435.12C686.371 434.22 687.371 432.87 687.771 431.07C687.971 429.97 687.621 428.87 686.721 427.77C685.821 426.67 684.871 425.47 683.871 424.17C682.871 422.97 682.371 421.77 682.371 420.57C682.371 418.47 683.421 416.52 685.521 414.72C687.721 413.02 690.321 412.17 693.321 412.17H696.471C694.271 412.57 692.321 413.42 690.621 414.72C688.921 416.02 688.071 417.42 688.071 418.92C688.071 420.12 688.621 421.27 689.721 422.37C690.821 423.47 691.821 424.57 692.721 425.67C693.721 426.87 694.071 428.27 693.771 429.87C693.271 432.17 691.671 433.97 688.971 435.27C686.371 436.67 683.421 437.72 680.121 438.42C676.821 439.12 673.821 439.47 671.121 439.47ZM743.163 412.77C742.163 412.77 741.313 412.57 740.613 412.17C739.913 411.77 739.563 411.02 739.563 409.92C739.563 408.52 739.913 406.92 740.613 405.12C741.313 403.32 742.113 401.57 743.013 399.87C743.913 398.07 744.713 396.62 745.413 395.52C741.913 399.22 738.263 402.72 734.463 406.02C732.563 407.62 730.463 409.12 728.163 410.52C725.863 411.92 723.413 412.62 720.813 412.62C719.813 412.62 719.113 412.32 718.713 411.72C718.313 411.02 718.113 410.22 718.113 409.32C718.113 408.82 718.163 408.47 718.263 408.27C718.763 404.37 720.013 400.32 722.013 396.12C724.013 391.92 726.463 387.97 729.363 384.27C732.263 380.57 735.213 377.57 738.213 375.27C741.613 372.67 745.363 371.37 749.463 371.37H766.713C767.213 371.37 767.463 371.57 767.463 371.97C767.463 372.77 767.013 373.17 766.113 373.17C765.113 373.17 764.113 373.82 763.113 375.12C762.113 376.32 761.363 377.32 760.863 378.12C760.163 379.22 759.063 381.07 757.563 383.67C756.063 386.27 754.513 389.12 752.913 392.22C751.413 395.22 750.113 398.02 749.013 400.62C747.913 403.22 747.363 405.12 747.363 406.32C747.363 407.72 748.063 408.42 749.463 408.42C750.963 408.42 752.663 407.72 754.563 406.32C756.463 404.92 758.363 403.22 760.263 401.22C762.263 399.12 764.063 397.07 765.663 395.07C767.363 392.97 768.713 391.32 769.713 390.12C770.313 390.72 770.263 391.57 769.563 392.67C768.963 393.67 768.413 394.47 767.913 395.07C765.913 397.67 763.613 400.37 761.013 403.17C758.413 405.87 755.563 408.17 752.463 410.07C749.463 411.87 746.363 412.77 743.163 412.77ZM726.963 407.52C728.163 407.52 729.813 406.67 731.913 404.97C734.113 403.17 736.463 400.97 738.963 398.37C741.463 395.67 743.813 392.87 746.013 389.97C748.213 386.97 750.013 384.27 751.413 381.87C752.913 379.37 753.663 377.47 753.663 376.17C753.663 375.07 753.313 374.32 752.613 373.92C752.013 373.52 751.213 373.32 750.213 373.32C748.613 373.32 746.863 373.92 744.963 375.12C743.163 376.22 741.713 377.32 740.613 378.42C739.413 379.52 737.963 381.27 736.263 383.67C734.663 385.97 733.063 388.52 731.463 391.32C729.863 394.12 728.513 396.82 727.413 399.42C726.313 402.02 725.763 404.12 725.763 405.72C725.763 406.92 726.163 407.52 726.963 407.52ZM767.755 414.42C767.355 414.42 767.355 414.02 767.755 413.22C768.255 412.32 768.705 411.32 769.105 410.22C769.605 409.12 770.105 407.92 770.605 406.62C771.605 404.22 772.705 401.52 773.905 398.52C775.105 395.52 776.255 392.62 777.355 389.82C778.455 386.92 779.405 384.47 780.205 382.47C781.105 380.37 781.705 379.02 782.005 378.42C780.605 379.92 778.905 381.82 776.905 384.12C775.005 386.32 773.205 388.47 771.505 390.57C769.805 392.67 768.505 394.32 767.605 395.52C767.305 395.92 767.055 396.12 766.855 396.12C766.655 396.12 766.555 395.87 766.555 395.37C766.555 394.57 766.805 393.82 767.305 393.12C769.205 390.72 771.305 388.02 773.605 385.02C776.005 382.02 778.155 379.27 780.055 376.77C781.955 374.17 783.155 372.47 783.655 371.67C784.755 371.47 786.355 371.17 788.455 370.77C790.655 370.37 792.155 369.82 792.955 369.12C793.255 368.82 793.555 368.67 793.855 368.67C794.055 368.67 794.155 368.87 794.155 369.27C794.255 369.57 794.155 369.92 793.855 370.32C793.255 370.92 792.355 372.22 791.155 374.22C790.055 376.22 788.805 378.52 787.405 381.12C786.005 383.72 784.655 386.22 783.355 388.62C784.355 387.12 785.655 385.37 787.255 383.37C788.955 381.27 790.805 379.27 792.805 377.37C794.805 375.37 796.805 373.72 798.805 372.42C800.905 371.12 802.855 370.47 804.655 370.47C805.955 370.47 807.055 370.77 807.955 371.37C808.855 371.87 809.555 372.82 810.055 374.22C810.355 374.92 810.505 375.72 810.505 376.62C810.505 378.32 810.055 379.97 809.155 381.57C808.355 383.07 807.755 384.22 807.355 385.02C807.255 385.32 806.905 385.62 806.305 385.92C805.705 386.12 805.455 386.02 805.555 385.62C805.655 385.12 805.705 384.62 805.705 384.12C805.805 383.62 805.855 383.07 805.855 382.47C805.855 380.77 805.505 379.22 804.805 377.82C804.205 376.42 803.055 375.72 801.355 375.72C799.755 375.72 797.805 376.72 795.505 378.72C793.205 380.72 790.905 383.02 788.605 385.62C785.705 389.02 783.405 392.27 781.705 395.37C780.005 398.37 778.605 401.32 777.505 404.22C776.905 405.82 776.305 407.42 775.705 409.02C775.105 410.52 774.655 411.72 774.355 412.62C773.055 412.72 771.755 413.02 770.455 413.52C769.155 414.12 768.255 414.42 767.755 414.42Z" fill="white"/>
</svg>
